<?xml version="1.0" encoding="UTF-8"?>
<svg id="Layer_1" xmlns="http://www.w3.org/2000/svg" version="1.1" viewBox="0 0 277.84 151.08">
  <!-- Generator: Adobe Illustrator 29.8.3, SVG Export Plug-In . SVG Version: 2.1.1 Build 3)  -->
  <defs>
    <style>
      .st0 {
        fill: #1a2d5a;
      }
    </style>
  </defs>
  <g id="Logo_LSA">
    <path class="st0" d="M174.62,72.93c3.21-.96,8.86.91,11.06-1.27,1.38-1.46,1.54-3.88-.26-5.1-5.76-4.83-44.48,5.28-33.36-9.87.09-.13.27-.18.42-.11,1.96.88,3.34,3.46,5.73,1.73,4.13-3.06,1.57-4.93-1.01-7.57-.09-.09-.12-.22-.08-.34.27-.98.9-1.62,1.07-2.71.31-2.65-2.61-5.37-5.12-3.72-.49.23-1.6,1.21-2,1.08-.46-.14-2.73-2.67-3.32-3.21-2.24-2.3-10.55-8-10.73-10.83,0-.06,0-.11.03-.16.66-1.32,1.94-3.17,2.9-4.26.78-.9,2.42-1.36,3.51-1.27,4.15.36,7.97,2.2,11.93-.25h.02c2.34-1.18,3.86-4.82,1.38-6.13h0c-1.63-.97-4.72-.36-6.7-.51-1.04-.08-2.09-.41-3.13-.64-.45-.1-.88-.25-1.3-.44-4.37-2.02-9.17-3.01-14-3.23-.72-.03-1.43-.21-2.08-.54-8.11-4.19-4.24-16.31-19.64-7.79,0,0-.02,0-.02.01-8.24,5.21.64,17.92.78,25.65.02,1.58.44,10.97.77,13.21.28,2.68,1.86,4.63,4.34,5.68,1.69.72,2.71,1.89,4.49,2.52.04.02.09.02.13.02.78-.04,1.28-.28,1.88-.66.07-.05.99-.89,1.51-.86h.01c2.37,1.27,2.62-.15,3.96.14.1.02.19.09.23.18,1.72,3.22,6.04,11.17,5.47,11.78-.04.05-.06.11-.11.15-1.23.96-2.4,2.62-3.85,3.19-1.33.52-2.92-.42-4.32-.5-2.02-.12-3.56.66-4.96,1.77-.59.47-3.02,2.69-4.05,4.16-2.86,4.04-2.46,9.71,3.11,11.71,4.21,1.71,7.69.82,11.83,1.76,3.08.82,5.63,2.05,8.49,3.19,3.51,1.32,7.38,2.12,10.99,3.31,1.75.58,5.01,2.41,6.62.76,2.28-2.34-1.59-5.74-1.97-6.19-.19-.22-.03-.56.27-.56,0,0,1.23-.46,6.3.53,2.64.51,6.38,1.95,8.22-1.12,0,0,0-.01,0-.02.91-1.23.32-2.22-.36-3.33,0-.01,0-.02-.02-.04-.48-1.03.53-.46,1.24-.38,1.62.19,3.23.35,4.83.53,1.65.18,2.97.72,4.52,0,0,0,.03-.01.04-.02,5.93-3.42-.09-7.65-4.43-8.03-.03,0-.07,0-.1-.02-.69-.3-5.53-.1-1.19-1.39h.01ZM152.12,45.92c-.03-.38,1.93-1.6,2.37-1.67,1.58-.25,3.2,1.68,2.92,3.17-.05.24-.65,1.35-1.02,1.88-.12.16-.35.19-.5.06-.89-.77-3.9-3.19-3.77-3.43h0ZM113.85,7.61c-.4-.49-.65-1.07-.8-1.68,0-.04-.02-.07-.03-.11-.05-.16.04-.34.19-.4.73-.32,2.66-.94,3.86-1.27.68-.19,1.41-.18,2.09.04,5.5,1.79,4.41,10.15,11.89,10.8h.04c6.07-.09,9.93,1.42,13,2.95,0,0,0,0,.02.01,4.3,1.81,9.85,1.18,11.62,1.39,1.34.16,2.19,1.24.84,2.21-1.79,1.28-7.43.84-9.62.44-2.97-.43-8.16-3.14-10.72-1.5-1.59,1,.05,2.62.61,3.67,0,.01,0,.02.02.03,1.63,2.22-1.04,3.75-1.21,5.86v.16c.47,4,5.39,6.74,8.29,9.16,4.9,4.08,9.2,8.97,13.9,13.26,0,0,.02.02.03.03.31.37,1.06,1.51,1.18,1.92.38,1.3-1,3.35-2.41,2.61-.03-.02-.06-.04-.08-.06-8.15-8.07-16.07-16.41-25.09-23.53-.03-.02-.05-.05-.08-.08l-7.63-11.76c.02.06-.05-.08-.12-.21-.1-.16-.17-.34-.22-.52-1.15-4.18-7.19-5.79-7.08-10.32,0-.33-.04-.67-.18-.97-.38-.88-1.03-.75-1.79-1.51-.09-.09-.29-.33-.52-.61h0ZM139.92,57.35c-.16.14-.4.11-.52-.07-.97-1.42-1.44-3.71-2.18-5.28-1.51-3.53-3.13-7.02-4.27-10.7,0,0,0-.03-.02-.04-1.85-3.88,11.66,8.55,12.8,9.35.07.05.12.12.14.2.37,1.6-4.44,5.15-5.95,6.54ZM121.62,42.86c-.31.71-1.04.6-1.57.12-.9-.78-2.13-2.49-1.99-4.03.07-.73.51-1.3,1.01-1.39h.02c1.05-.16,1.83,1.41,2.33,2.59.17.4.29.78.37,1.15.11.54.04,1.12-.17,1.55h0ZM126.11,46.78c-.86-.56-1.68-1.38-2.07-2.3-.19-.44-.33-.93-.34-1.41-.02-.45.16-1.13.73-.79h.02c.87.56,1.29,1.73,1.74,2.58.22.51.48,1,.56,1.55.1.55-.16.66-.64.37ZM133.31,55.6c-.91-1.78-1.95-3.46-2.84-5.28-.46-.89-.96-1.77-1.33-2.7-.69-1.79-1.26-3.77-1.99-5.57-.54-1.38-1.23-2.72-2.13-3.91-1.01-1.33-1.74-2.8-2.52-4.27-.71-1.31-1.21-2.53-1.72-3.96-.28-.75-.62-1.54-.75-2.33v-.02c-.07-.43,0-1.06.59-.55.31.25.67.77.99,1.13.43.49.92.91,1.4,1.35.89.81,1.9,1.78,2.58,2.75.36.48.67.96,1.02,1.44.52.71,1.08,1.41,1.59,2.14.48.66.97,1.33,1.55,1.93.61.64,1.23,1.28,1.67,2.05.69,1.3,1.2,2.77,1.81,4.07.35.75.64,1.58.92,2.33.65,1.59,1.36,3.24,1.98,4.86,1.37,3.29,3.01,6.43,4.24,9.76.4,1.04.89,2.09,1.22,3.12.23.72.44,1.44.65,2.16.37,1.24.76,2.68.07,3.88-.63,1.05-1.94,1.19-2.65.08-.36-.52-.59-1.16-.82-1.75-1.66-4.33-3.71-8.46-5.53-12.73v.02ZM172.64,74.92s.08.02.12.02c.52,0,3.82.21,4.11.29,2.62.58,7.76,3.61,3.58,6,0,.06-.03.1-.05.12-3.22-.79-5.38-3.25-8.95-3.55h-.02c-2.81-.04-10.06-.91-11.84-1.19-.03,0-.07-.02-.1-.03-3.05-1.54-6.18-1.46-8.78.68-.19.16-.15.46.07.57,2.09,1.04,4.57.97,6.86,1.37h0c3.62.94,8.63.73,11.54,3.52.02.02.04.05.06.07.25.41.78,1.05.68,1.49-.08.62-1.01,1.51-1.58,1.72-.02,0-.03.01-.05.02-.97.23-1.7-.61-2.44-1-4.58-2.38-18.25-4.67-19.55-4.82-.59,0-1.22,1.48-1.19,2.03,0,.07.03.14.08.2,1.23,1.45,4.24,2.08,6.02,3.06,1.94,1.05,3.54,1.75,5.07,3.6,1.43,1.74.71,3.52-.67,3.37-.04,0-.08-.02-.11-.03-1.8-.9-2.94-2.71-4.63-3.78-.18-.12-4.7-2.19-5.67-2.38-.88-.17-1.79-1.36-2.83-1.87,0,0-.02,0-.03-.01-5.05-2.13-10.89-3.83-15.78-6.35-1.17-.55-2.02-1.64-3.39-1.78-2.67-.23-3.41,2-6.83.44-3-.95,1.86-5.94,2.93-7.08,1.33-1.25,2.68-2.35,4.17-2.63,2.89-.54,5.69.7,5.71.71.88.39-3.18,4.21-1.95,3.26.02-.02,5.44-5.19,6.62-6.26.12-.11.3-.12.43-.03.05.03.09.08.11.13.63,1.37,1.35,2.7,2.02,4.05.81,1.83,1.13,3.75,3.62,3.57h0c7.77-1.06.18-10,.19-13.98,0-.08.03-.16.09-.22,1.95-2.15,4.69-3.9,6.82-5.89.56-.47,2.88,2.09,3.71,2.8.13.11.16.29.07.43-11.78,20.62,40.76,3.07,34.56,15-.03.06-.08.11-.14.15-1.25.66-6.18-.86-6.4-.8-5.09-.37-15.09-.65-20.07-.05-.23.03-.59.11-.91.19-.39.09-.76.23-1.12.41-5.09,2.58,13.75,3.73,15.81,4.47h.01Z"/>
    <g id="Shape_1_copy_8">
      <g>
        <path class="st0" d="M103.44,15.45l1.38,4.73c-4.9,4.58-9.03,10.13-12.41,16.63-4.75,9.15-6.76,18.89-6.35,29.02.07,1.65.42,6.41.41,7.13,0,.12-.08.22-.2.26h0c-.13.03-.38-.15-.53-.9-.52-2.62-.97-4.92-1.24-8.76-.81-11.61.89-20.39,6.02-30.8,3.23-6.56,7.55-12.33,12.92-17.31Z"/>
        <path class="st0" d="M202.21,63.55c-.27,3.84-.72,6.14-1.24,8.76-.15.75-.4.94-.53.9h0c-.12-.03-.2-.14-.2-.26,0-.72.34-5.48.41-7.13.41-10.13-1.6-19.87-6.35-29.02-5.41-10.41-12.76-18.37-22.05-23.82,0,0-19.66-13.14-45.22-5.24l-2.39-4.73c10.77-3.41,28.73-6.03,47.73,4.34.67.38,1.32.78,1.97,1.2,2.68,1.7,5.23,3.62,7.68,5.77,5.95,5.22,10.68,11.37,14.17,18.43,5.13,10.41,6.83,19.19,6.02,30.8h0Z"/>
      </g>
    </g>
    <g>
      <path class="st0" d="M14.74,115.87c0,2.46-1.87,5.08-7.11,5.08-4.83,0-7.61-2.14-7.61-5.87v-.55h3.39v.79c0,1.51.7,2.45,4.22,2.45s3.72-.87,3.72-1.76c0-.98-.36-1.48-2.51-1.88l-3.9-.64c-3.28-.58-4.94-2.17-4.94-4.74s1.91-5.06,7.28-5.06c4.51,0,7.21,2.2,7.21,5.87v.55h-3.37v-.72c0-1.52-.69-2.53-4.08-2.53-3.21,0-3.64.88-3.64,1.74,0,1.06.49,1.44,2.37,1.84l3.87.67c3.39.61,5.11,2.21,5.11,4.77h-.01Z"/>
      <path class="st0" d="M27.58,103.68c-5.22,0-8.74,3.47-8.74,8.64s3.51,8.63,8.74,8.63,8.76-3.39,8.76-8.63-3.44-8.64-8.76-8.64ZM27.58,117.66c-3.59,0-5.2-1.64-5.2-5.34s1.6-5.37,5.2-5.37,5.22,1.66,5.22,5.37-1.61,5.34-5.22,5.34Z"/>
      <rect class="st0" x="62.34" y="103.92" width="3.39" height="16.79"/>
      <polygon class="st0" points="74.65 107.05 74.65 110.72 84.5 110.72 84.5 113.82 74.65 113.82 74.65 117.58 84.86 117.58 84.86 120.71 71.26 120.71 71.26 103.92 84.86 103.92 84.86 107.05 74.65 107.05"/>
      <path class="st0" d="M98.11,103.92h-7.68v16.79h7.68c5.24,0,8.49-3.21,8.49-8.39s-3.26-8.4-8.49-8.4ZM98.11,117.58h-4.32v-10.53h4.32c3.57,0,4.96,1.48,4.96,5.27s-1.39,5.26-4.96,5.26Z"/>
      <path class="st0" d="M120.19,103.92h-4.15l-7.49,16.79h3.75l1.84-4.15h7.91l1.84,4.15h3.8l-7.49-16.79h-.01ZM118.09,107.55l2.57,5.88h-5.14l2.57-5.88Z"/>
      <path class="st0" d="M138.9,103.92h-7.68v16.79h7.68c5.24,0,8.49-3.21,8.49-8.39s-3.26-8.4-8.49-8.4ZM138.9,117.58h-4.32v-10.53h4.32c3.57,0,4.96,1.48,4.96,5.27s-1.39,5.26-4.96,5.26Z"/>
      <path class="st0" d="M175.38,111.91c1.56-.6,2.41-1.85,2.41-3.64,0-2.72-1.98-4.34-5.3-4.34h-9.35v16.79h9.69c3.47,0,5.54-1.8,5.54-4.82,0-1.96-1.07-3.36-2.98-3.99h0ZM166.5,113.56h6.03c1.7,0,2.43.59,2.43,1.98s-.71,2.04-2.43,2.04h-6.03v-4.02ZM172.13,110.62h-5.63v-3.57h5.7c1.95,0,2.22.86,2.22,1.78s-.27,1.79-2.28,1.79h0Z"/>
      <g>
        <polygon class="st0" points="190.29 98.62 186.9 102.47 183.62 102.47 186.4 98.62 190.29 98.62"/>
        <rect class="st0" x="183.63" y="103.92" width="3.39" height="16.79"/>
      </g>
      <path class="st0" d="M205.2,111.91c1.57-.6,2.41-1.85,2.41-3.64,0-2.72-1.98-4.34-5.3-4.34h-9.35v16.79h9.69c3.46,0,5.54-1.8,5.54-4.82,0-1.96-1.07-3.36-2.98-3.99h0ZM202.36,117.58h-6.03v-4.02h6.03c1.7,0,2.43.59,2.43,1.98s-.7,2.04-2.43,2.04ZM196.32,107.05h5.7c1.95,0,2.22.86,2.22,1.78s-.27,1.79-2.29,1.79h-5.63v-3.57Z"/>
      <polygon class="st0" points="226.3 117.58 226.3 120.71 213.05 120.71 213.05 103.92 216.45 103.92 216.45 117.58 226.3 117.58"/>
      <rect class="st0" x="231.03" y="103.92" width="3.39" height="16.79"/>
      <path class="st0" d="M256.05,114.08v.42c-.11,3.92-3.27,6.45-8.07,6.45-5.18,0-8.66-3.47-8.66-8.63s3.48-8.64,8.66-8.64c4.75,0,7.98,2.59,8.06,6.45v.42h-3.65v-.4c-.06-2.15-1.5-3.2-4.39-3.2-3.56,0-5.15,1.65-5.15,5.37s1.59,5.34,5.15,5.34c2.89,0,4.32-1.04,4.38-3.18v-.4h3.67Z"/>
      <path class="st0" d="M53.62,114.08h3.66v.42c-.1,3.92-3.27,6.45-8.07,6.45-5.18,0-8.65-3.47-8.65-8.63s3.48-8.64,8.65-8.64c4.74,0,7.99,2.59,8.07,6.45v.42h-3.65v-.4c-.07-2.15-1.5-3.2-4.39-3.2-3.56,0-5.15,1.65-5.15,5.37s1.59,5.34,5.15,5.34c2.88,0,4.32-1.04,4.38-3.18v-.4Z"/>
      <path class="st0" d="M270.34,103.92h-4.16l-7.49,16.79h3.76l1.84-4.15h7.91l1.84,4.15h3.81l-7.49-16.79h-.02ZM268.24,107.55l2.57,5.88h-5.14l2.57-5.88Z"/>
      <path class="st0" d="M25.32,130.39h-4.16l-7.49,16.79h3.76l1.84-4.15h7.91l1.84,4.15h3.81l-7.49-16.79h-.02ZM23.22,134.03l2.57,5.88h-5.14l2.57-5.88Z"/>
      <path class="st0" d="M49.27,141.95c-.43-.75-.87-1.34-1.52-1.76,2.48-.52,3.93-2.21,3.93-4.69,0-3.19-2.35-5.1-6.28-5.1h-8.71v16.79h3.39v-6.2h2.53c1.9,0,2.47.47,3.1,1.59l2.67,4.61h3.9l-3.02-5.24h.01ZM40.09,133.52h5.3c2,0,2.81.68,2.81,2.33s-.79,2.33-2.81,2.33h-5.3v-4.67h0Z"/>
      <path class="st0" d="M63.41,138.21h9.29v8.97h-3.15v-2.32c-1.05,1.66-2.98,2.56-5.58,2.56-4.92,0-8.23-3.47-8.23-8.63s3.57-8.63,8.87-8.63c4.79,0,8.04,2.53,8.09,6.3v.42h-3.65v-.4c-.04-2.05-1.51-3.05-4.51-3.05-3.65,0-5.27,1.66-5.27,5.37s1.59,5.34,5.15,5.34c3.96,0,4.86-1.2,4.91-3.14h-5.92v-2.79Z"/>
      <polygon class="st0" points="81.52 133.52 81.52 137.19 91.37 137.19 91.37 140.29 81.52 140.29 81.52 144.06 91.73 144.06 91.73 147.19 78.13 147.19 78.13 130.39 91.73 130.39 91.73 133.52 81.52 133.52"/>
      <polygon class="st0" points="112.26 130.39 112.26 147.19 108.89 147.19 100.14 135.7 100.19 147.19 96.8 147.19 96.8 130.39 100.18 130.39 108.95 142.04 108.87 130.39 112.26 130.39"/>
      <polygon class="st0" points="132.43 130.39 132.43 133.52 126.15 133.52 126.15 147.19 122.79 147.19 122.79 133.52 116.49 133.52 116.49 130.39 132.43 130.39"/>
      <rect class="st0" x="137.08" y="130.39" width="3.39" height="16.79"/>
      <polygon class="st0" points="161.89 130.39 161.89 147.19 158.52 147.19 149.76 135.7 149.82 147.19 146.43 147.19 146.43 130.39 149.81 130.39 158.57 142.04 158.5 130.39 161.89 130.39"/>
      <path class="st0" d="M176.99,130.39h-4.15l-7.5,16.79h3.76l1.84-4.15h7.92l1.84,4.15h3.8l-7.49-16.79h-.02ZM174.89,134.03l2.57,5.88h-5.13l2.57-5.88h-.01Z"/>
    </g>
    <g>
      <polygon class="st0" points="245.88 134.01 248.45 139.91 243.32 139.91 245.88 134.01"/>
      <path class="st0" d="M257.83,127.16h-65.63l5.09,23.92h68.29l-7.75-23.92ZM216.62,147.17h-13.22v-16.78h3.39v13.64h9.83v3.14ZM227.19,147.65c-4.83,0-7.59-2.15-7.59-5.86v-.54h3.39v.77c0,1.54.7,2.47,4.19,2.47s3.75-.86,3.75-1.76c0-.99-.38-1.47-2.53-1.89l-3.91-.64c-3.27-.58-4.93-2.18-4.93-4.74s1.92-5.06,7.27-5.06c4.51,0,7.2,2.18,7.2,5.86v.54h-3.36v-.7c0-1.54-.67-2.53-4.07-2.53s-3.65.86-3.65,1.73c0,1.06.48,1.44,2.37,1.86l3.87.67c3.39.58,5.09,2.21,5.09,4.74s-1.86,5.09-7.11,5.09h.02ZM251.68,147.17l-1.82-4.13h-7.91l-1.86,4.13h-3.75l7.49-16.78h4.16l7.49,16.78h-3.81,0Z"/>
    </g>
  </g>
</svg>